<mxfile host="app.diagrams.net" modified="2023-11-13T11:34:56.665Z" agent="Mozilla/5.0 (Windows NT 10.0; Win64; x64; rv:109.0) Gecko/20100101 Firefox/119.0" etag="pDKUSaQ-Q-GuORPcNLRP" version="22.1.0" type="device">
  <diagram id="IKdcczgC__YtXfX8UIwX" name="Page-1">
    <mxGraphModel dx="1242" dy="659" grid="1" gridSize="10" guides="1" tooltips="1" connect="1" arrows="1" fold="1" page="1" pageScale="1" pageWidth="827" pageHeight="1169" math="0" shadow="0">
      <root>
        <mxCell id="0" />
        <mxCell id="1" parent="0" />
        <mxCell id="m_R6_4stdK32f-bWhgOH-19" value="vertritt" style="endArrow=none;html=1;endFill=0;verticalAlign=bottom;exitX=0.75;exitY=0;exitDx=0;exitDy=0;entryX=0.25;entryY=0;entryDx=0;entryDy=0;rounded=0;labelBackgroundColor=none;" parent="1" source="m_R6_4stdK32f-bWhgOH-1" target="m_R6_4stdK32f-bWhgOH-1" edge="1">
          <mxGeometry relative="1" as="geometry">
            <mxPoint x="120" y="240" as="sourcePoint" />
            <mxPoint x="80" y="120" as="targetPoint" />
            <Array as="points">
              <mxPoint x="160" y="100" />
              <mxPoint x="80" y="100" />
            </Array>
          </mxGeometry>
        </mxCell>
        <mxCell id="m_R6_4stdK32f-bWhgOH-20" value="&lt;font style=&quot;font-size: 9px;&quot;&gt;&lt;sub&gt;&lt;font style=&quot;font-size: 8px;&quot;&gt;&lt;font style=&quot;font-size: 9px;&quot;&gt;&lt;font style=&quot;font-size: 10px;&quot;&gt;verantwortlicher&lt;/font&gt;&lt;/font&gt;&lt;/font&gt;&lt;/sub&gt;&lt;/font&gt;" style="resizable=0;html=1;align=left;verticalAlign=bottom;labelBackgroundColor=none;fontSize=10;spacingTop=0;spacingLeft=4;spacing=0;spacingBottom=2;" parent="m_R6_4stdK32f-bWhgOH-19" connectable="0" vertex="1">
          <mxGeometry x="-1" relative="1" as="geometry" />
        </mxCell>
        <mxCell id="m_R6_4stdK32f-bWhgOH-21" value="&lt;font style=&quot;font-size: 9px;&quot;&gt;&lt;sub&gt;&lt;font style=&quot;font-size: 8px;&quot;&gt;&lt;font style=&quot;font-size: 9px;&quot;&gt;&lt;font style=&quot;font-size: 10px;&quot;&gt;vertreter&lt;/font&gt;&lt;/font&gt;&lt;/font&gt;&lt;/sub&gt;&lt;/font&gt;" style="resizable=0;html=1;align=right;verticalAlign=bottom;labelBackgroundColor=none;fontSize=10;spacingLeft=0;spacing=0;spacingBottom=2;spacingRight=5;spacingTop=0;" parent="m_R6_4stdK32f-bWhgOH-19" connectable="0" vertex="1">
          <mxGeometry x="1" relative="1" as="geometry" />
        </mxCell>
        <mxCell id="m_R6_4stdK32f-bWhgOH-1" value="&lt;b&gt;Sachbearbeiter&lt;/b&gt;" style="html=1;fontStyle=0" parent="1" vertex="1">
          <mxGeometry x="40" y="160" width="160" height="40" as="geometry" />
        </mxCell>
        <mxCell id="19y9xz3U2XeAm1oFRW64-9" value="" style="triangle;whiteSpace=wrap;html=1;dashed=0;direction=north;fillColor=#000000;aspect=fixed;rotation=90;" parent="1" vertex="1">
          <mxGeometry x="143" y="87" width="5" height="10" as="geometry" />
        </mxCell>
        <mxCell id="19y9xz3U2XeAm1oFRW64-11" value="0..1" style="resizable=0;html=1;align=right;verticalAlign=bottom;labelBackgroundColor=none;fontSize=10;spacingTop=0;spacingLeft=0;spacing=0;spacingBottom=2;spacingRight=4;" parent="1" connectable="0" vertex="1">
          <mxGeometry x="160" y="160" as="geometry" />
        </mxCell>
        <mxCell id="19y9xz3U2XeAm1oFRW64-12" value="&lt;sub&gt;&lt;font style=&quot;font-size: 9px;&quot;&gt;&lt;font style=&quot;font-size: 10px;&quot;&gt;0..2&lt;/font&gt;&lt;/font&gt;&lt;/sub&gt;" style="resizable=0;html=1;align=left;verticalAlign=bottom;labelBackgroundColor=none;fontSize=10;spacingLeft=4;spacing=0;spacingBottom=2;spacingRight=0;spacingTop=0;" parent="1" connectable="0" vertex="1">
          <mxGeometry x="80" y="160" as="geometry" />
        </mxCell>
      </root>
    </mxGraphModel>
  </diagram>
</mxfile>
